<svg width="31" height="32" viewBox="0 0 31 32" fill="none" xmlns="http://www.w3.org/2000/svg">
<g clip-path="url(#clip0_53_361)">
<path d="M21 7C21 10.0376 18.5376 12.5 15.5 12.5C12.4624 12.5 10 10.0376 10 7C10 3.96243 12.4624 1.5 15.5 1.5C18.5376 1.5 21 3.96243 21 7Z" stroke="white" stroke-width="1.8"/>
<path d="M29.3928 20.1563C27.4899 26.2338 21.9751 30.6 15.4999 30.6C9.02475 30.6 3.50996 26.2338 1.60708 20.1563C1.29982 19.175 1.56621 18.2707 2.1947 17.5802C2.83757 16.8739 3.86129 16.4 4.99995 16.4H25.9999C27.1386 16.4 28.1623 16.8739 28.8051 17.5802C29.4336 18.2707 29.7 19.175 29.3928 20.1563Z" stroke="white" stroke-width="1.8"/>
</g>
<defs>
<clipPath id="clip0_53_361">
<rect width="31" height="31" fill="white" transform="translate(0 0.5)"/>
</clipPath>
</defs>
</svg>
