<svg width="67" height="40" viewBox="0 0 67 40" fill="none" xmlns="http://www.w3.org/2000/svg">
<g clip-path="url(#clip0_53_281)">
<path d="M66.5508 16.516C66.4999 15.4671 66.1053 14.7993 65.6406 14.1803C64.6838 12.8908 63.7911 11.8621 62.7716 10.6104C61.8548 9.49995 60.6636 8.1577 58.8013 8.12176C57.8122 8.11406 56.6919 8.44632 55.6599 8.60695C55.039 8.70524 54.4746 8.67333 53.9861 8.76281C53.4752 8.85156 53.0197 9.0265 52.6027 9.22013C52.1095 9.43211 51.6998 9.55276 51.3536 9.79151C50.6807 10.2569 50.073 10.9907 49.627 11.6982C49.3975 12.0576 49.2588 12.4907 48.9871 12.9165C48.8173 13.1959 48.4824 13.3676 48.2349 13.5506C47.4358 14.1505 47.01 14.858 46.684 15.9963C46.3117 17.3562 46.575 19.6058 45.3927 20.0268C44.9398 20.1852 44.1014 20.2017 43.6932 20.0268C43.1395 19.795 43.1508 19.103 43.1508 18.3581C43.1508 16.9469 42.5578 16.4195 42.2985 15.2999C42.102 14.4586 42.3136 13.6276 42.0906 12.8501C41.9058 12.1735 41.4462 11.802 40.9684 11.3351C40.2162 10.5965 39.5495 10.1194 38.9091 9.42844C38.2556 8.71844 37.7932 7.85807 36.8859 7.46456C36.2525 7.18254 35.4053 7.21445 34.5769 7.09416C33.7851 6.98157 32.8965 7.08059 32.1946 7.31494C31.5355 7.51517 31.0716 7.9901 30.5501 8.42321C30.0811 8.82369 29.5144 9.12368 28.7942 9.42844C27.4956 9.97635 26.0458 10.4249 25.5574 11.6985C25.4327 12.0381 25.4165 12.4221 25.2823 12.7613C25.0124 13.4952 24.6244 13.7889 24.1069 14.2694C23.8638 14.4868 23.6118 14.7333 23.4024 14.9713C23.0096 15.4352 22.5098 16.0367 22.4471 16.7856C22.3224 17.9972 22.7834 19.0857 22.3807 20.0877C22.2373 20.4573 21.7781 20.7896 21.2915 20.8695C20.8661 20.9399 20.4432 20.8593 20.0695 20.8695C19.643 20.8886 19.2524 20.9509 18.8978 21.0555C17.6468 21.4229 17.3872 22.3332 17.3564 23.8709C17.3498 24.4107 17.4547 24.9022 17.3564 25.4182C16.9992 27.2324 15.632 28.285 15.4218 30.1982C15.2905 31.2383 15.5099 32.8263 14.9249 33.3738C14.7327 33.5557 13.8628 33.9862 13.4836 33.98C13.089 33.98 12.8169 33.6635 12.4465 33.5249C12.0314 33.3738 11.5209 33.3929 11.0522 33.3375C10.2508 33.27 9.54341 33.0382 9.33144 32.5292C8.85505 31.3721 9.45686 29.3837 9.42386 28.1071C9.37398 26.6445 8.90786 25.0676 9.27129 23.7814C9.49867 22.9544 9.77116 22.1865 9.95636 21.2366C10.3697 19.2438 9.79316 17.3599 9.6285 15.4294C9.55001 14.4659 9.44476 13.4592 9.3098 12.5127C9.15944 11.5977 8.785 10.6192 8.90786 9.67342C8.98817 8.97589 9.70845 8.48593 10.2376 8.00403C10.7107 7.56872 11.2883 7.09379 11.4127 6.46447C11.6342 5.44714 10.9381 4.59411 10.6018 3.88961C10.2622 3.17411 9.94572 2.4355 9.31017 2.0706C9.129 1.96864 8.85505 1.88686 8.5976 1.83295C8.0607 1.70313 7.33346 1.5854 6.91354 1.61914C6.39388 1.65398 5.71541 2.05996 5.15504 2.0981C4.65738 2.13624 4.22059 2.02145 3.78821 2.0981C3.45301 2.16045 3.0694 2.32585 2.72614 2.45971C2.38251 2.6086 1.9967 2.74319 1.73081 2.91556C1.44989 3.09673 1.27129 3.51481 1.00834 3.82653C0.749427 4.11222 0.515082 4.34657 0.339048 4.63959C-0.0280557 5.26414 -0.0944351 5.99138 0.129274 6.70542C0.432199 7.70734 1.61933 7.8192 2.09315 8.76171C2.33556 9.25241 2.24425 9.97525 2.24425 10.6409C2.27102 12.7155 3.10131 14.0611 3.30558 15.9377C3.38186 16.5868 3.33052 17.2704 3.33052 17.9672C3.33052 18.6669 3.49079 19.3292 3.50839 19.8991C3.58687 21.1758 2.90364 22.2309 2.63409 23.2592C2.31979 24.4892 2.47089 25.7794 2.61172 27.041C2.74778 28.3675 2.67626 29.8216 2.78152 31.103C2.90401 32.5189 3.32392 33.5663 2.67003 34.6728C2.21271 35.451 1.23792 36.5193 1.41909 37.6709C1.53461 38.2892 2.23288 38.9002 2.8501 39.2761C3.47538 39.6589 4.24736 39.9101 5.08426 39.8269C6.09278 39.7154 6.88494 38.8462 8.08637 39.063C8.48611 39.1396 8.87852 39.3201 9.31017 39.389C9.77116 39.4873 10.2508 39.5181 10.7221 39.5544C12.6405 39.6652 14.3785 38.8374 16.2881 39.2456C17.0934 39.4198 18.0862 39.7943 18.9653 39.5177C20.0805 39.1686 20.8279 37.4853 20.8664 36.1001C20.9126 34.4887 20.8275 32.695 21.1939 31.3384C21.3226 30.9174 21.6017 30.6009 21.8093 30.2573C22.1779 29.6129 22.5098 28.9275 22.5879 28.0752C22.6304 27.7048 22.5677 27.2497 22.8021 26.8019C23.0478 27.0623 23.0544 27.469 23.0742 27.8009C23.1479 29.091 23.1347 30.3486 23.4739 31.3127C23.6727 31.8881 24.1494 32.1786 24.4113 32.6513C24.8081 33.3731 24.8617 34.2026 25.078 34.946C25.3032 35.7818 25.5577 36.3865 26.0744 36.9154C26.5681 37.4321 27.2414 37.698 27.9268 38.0339C28.6115 38.368 29.3589 38.5334 30.1306 38.8231C30.9429 39.1231 31.4515 39.4745 32.4601 39.4602C33.3949 39.4477 34.1863 39.3208 35.0943 39.0931C35.9448 38.884 36.7883 38.8301 37.5518 38.5778C37.8922 38.4725 38.2277 38.2873 38.5728 38.1241C38.9458 37.958 39.3474 37.8924 39.6954 37.7347C41.0916 37.1031 41.217 35.2416 41.5757 33.4644C41.7591 32.5439 41.436 31.7103 41.1745 30.8983C40.9449 30.1014 40.5881 29.0628 39.8495 29.0151C38.56 28.9282 38.004 30.5752 37.3993 31.5544C36.7366 32.6121 35.6844 33.1556 34 33.1556C32.4021 33.1556 30.9143 32.8992 30.3161 31.8566C30.0062 31.3388 29.9351 30.6346 29.6666 29.9848C29.3369 29.1259 28.712 28.5908 28.6735 27.5555C28.6669 27.2159 28.7696 27.125 28.7696 26.7725C28.7696 26.2881 28.467 26.1542 28.5199 25.5949C29.3146 24.8904 30.4944 25.1824 31.3936 25.4174C32.3038 25.6477 33.2827 26.0721 34.3 26.0427C35.0408 26.031 35.9188 25.8157 36.6317 25.6833C37.3923 25.5418 38.1372 25.3518 38.9697 25.2916C40.7271 25.1688 42.5831 25.6731 44.1113 25.4435C44.474 25.391 45.0623 24.955 45.4242 25.1108C45.671 25.2168 45.6758 25.6727 45.6963 25.9213C45.7426 27.085 45.685 28.117 45.9373 28.9854C46.2384 30.0563 47.0661 30.9174 47.3272 32.0154C47.4361 32.4584 47.394 32.7173 47.5143 33.2249C47.5748 33.5242 47.8381 33.672 48.0834 33.9158C48.6614 34.5022 49.1213 35.2724 49.5717 35.8533C50.2453 36.7335 50.816 37.5597 51.7134 38.2866C52.4938 38.8888 53.4891 39.6179 54.7206 39.8269C55.3962 39.9362 56.1531 39.8863 56.891 39.9197C57.5893 39.9362 58.366 40.0733 59.0434 39.9424C59.738 39.8038 60.144 39.3204 60.7014 38.9167C61.1741 38.5741 61.7609 38.3119 62.2472 38.0332C62.8189 37.7174 63.2711 37.4347 63.7376 37.1024C64.2265 36.7247 64.554 36.3348 64.9159 35.8291C65.5137 34.9757 66.3106 33.7757 66.3444 32.3766C66.3462 31.6025 66.1207 31.0135 65.8196 30.4714C65.5808 30.0053 65.1792 29.387 64.6123 29.2319C63.544 28.9278 62.948 29.808 62.381 30.1373C62.0976 30.2877 61.8144 30.3486 61.5871 30.5008C60.4982 31.1697 59.9448 32.9774 58.8296 33.3731C58.3788 33.5322 57.7858 33.555 57.1055 33.555C56.9016 33.555 56.7106 33.4339 56.5008 33.3364C55.929 33.0998 55.4471 32.8805 55.0148 32.5512C54.417 32.1071 53.8394 31.6329 53.4426 31.0744C52.8063 30.1744 52.7282 28.7379 52.0787 27.894C51.8154 27.5551 51.5473 27.3765 51.3778 27.0406C51.0753 26.4344 51.3243 25.5289 51.8352 25.3151C52.6229 25.0089 53.2258 25.6364 54.0114 25.6239C54.6396 25.6144 55.2022 25.3595 55.7688 25.2315C57.0384 24.9458 58.5582 25.0089 59.5546 25.4435C60.0702 25.6731 60.5903 25.9096 61.1943 25.954C62.0737 26.0229 62.9862 25.8795 63.7911 25.7757C64.5056 25.6833 65.7385 25.566 66.0293 25.2311C66.1698 25.0665 66.1515 24.7896 66.2094 24.4988C66.2674 24.278 66.3444 24.0506 66.3932 23.8694C66.8391 22.478 66.5512 20.8292 66.3932 19.5082C66.2791 18.4861 66.5982 17.4262 66.5508 16.516ZM37.4569 19.4818C37.3032 19.9006 35.9756 20.2842 35.2194 20.2061C34.7999 20.165 34.4881 19.93 33.9996 19.8119C32.9442 19.5595 31.043 19.6575 29.6399 19.7209C29.0461 19.747 28.5448 19.747 28.4304 19.4184C28.2158 18.8176 29.0868 18.1549 29.4033 17.8102C29.8137 17.3723 30.2307 16.6895 30.3986 16.2083C30.5321 15.8243 30.5098 15.4162 30.8024 15.0909C31.006 14.836 31.585 14.734 32.0046 14.521C32.7164 14.1513 33.0087 13.3195 33.7649 13.2172C34.3429 13.1358 34.5831 13.6184 35.0613 13.9723C35.4053 14.2246 35.9932 14.4062 36.152 14.6618C36.3126 14.9031 36.2525 15.389 36.3126 15.9391C36.4109 17.0775 37.0021 17.6426 37.3032 18.3897C37.4393 18.726 37.5515 19.2009 37.4569 19.4818ZM59.0705 19.9945C58.4551 19.9556 57.8302 20.0341 57.1609 20.0546C55.8891 20.0943 54.8072 19.8694 53.6934 19.6296C53.1363 19.5163 52.3578 19.5331 52.2705 19.1151C52.181 18.7733 52.5606 18.1106 52.7436 17.8098C53.1895 17.0731 53.7517 16.4287 54.2604 15.755C54.6356 15.2629 54.9546 14.6519 55.7193 14.5818C56.0343 14.5342 56.3438 14.661 56.7106 14.6974C57.1338 14.7329 57.6542 14.6057 57.9509 14.6974C58.3583 14.8114 58.6645 15.3091 59.017 15.572C59.3657 15.8489 59.87 16.0803 60.0702 16.4507C60.3739 17.0049 60.1949 17.801 60.3464 18.5103C60.4447 19.005 60.7175 19.3421 60.7014 19.8368C60.3937 20.1852 59.5971 20.0198 59.0705 19.9945Z" fill="white"/>
<path d="M65.3535 3.90171C65.3337 3.85037 65.3241 3.76786 65.3241 3.6549L65.3087 3.26139C65.3087 3.09599 65.2643 2.97717 65.2104 2.89649C65.1661 2.82901 65.063 2.75859 64.9537 2.70799C65.0806 2.65041 65.1793 2.55836 65.2596 2.44283C65.3337 2.33758 65.3615 2.19345 65.3615 2.01632C65.3615 1.68076 65.2266 1.45264 64.9622 1.32392C64.8177 1.26304 64.6479 1.2315 64.4161 1.2315H63.0911V4.15513H63.482V2.89649H64.3625C64.5232 2.89649 64.6391 2.91152 64.7084 2.95663C64.829 3.01531 64.9024 3.13963 64.9203 3.33804L64.9427 3.8225C64.9427 3.93985 64.953 4.01174 64.9618 4.04731C64.9618 4.09168 64.9779 4.12469 64.9871 4.15476H65.4752V4.07885C65.4198 4.05574 65.3711 3.99963 65.3535 3.90171ZM64.8019 2.44687C64.6999 2.52755 64.5543 2.57119 64.3809 2.57119H63.482V1.5689H64.4161C64.5543 1.5689 64.6618 1.59274 64.744 1.62501C64.8826 1.69946 64.9622 1.84505 64.9622 2.06106C64.9625 2.24883 64.9159 2.38342 64.8019 2.44687Z" fill="white"/>
<path d="M63.8123 0.0223704C62.5444 0.173466 61.4666 1.23737 61.4761 2.71495C61.4989 5.04447 64.0462 5.99248 65.6881 4.93848C66.6677 4.31099 67.2614 2.74906 66.5848 1.42331C66.2331 0.718804 65.2598 -0.151096 63.8123 0.0223704ZM66.4047 3.07032C66.2331 4.45329 64.4764 5.51939 62.9948 4.60988C62.3369 4.21014 61.7149 3.19318 62.0248 2.08417C62.2283 1.3859 62.9134 0.643623 63.8629 0.515265C65.3536 0.323095 66.5983 1.42331 66.4047 3.07032Z" fill="white"/>
</g>
<defs>
<clipPath id="clip0_53_281">
<rect width="66.8745" height="40" fill="white"/>
</clipPath>
</defs>
</svg>
