<svg width="67" height="38" viewBox="0 0 67 38" fill="none" xmlns="http://www.w3.org/2000/svg">
<path d="M66.5504 14.516C66.4994 13.4671 66.1048 12.7993 65.6401 12.1802C64.6833 10.8908 63.7907 9.86209 62.7711 8.61042C61.8543 7.49994 60.6631 6.15768 58.8008 6.12174C57.8117 6.11404 56.6914 6.4463 55.6594 6.60693C55.0385 6.70522 54.4741 6.67331 53.9856 6.7628C53.4747 6.85155 53.0192 7.02648 52.6022 7.22012C52.109 7.43209 51.6993 7.55275 51.3531 7.79149C50.6802 8.25688 50.0725 8.99072 49.6265 9.69816C49.397 10.0576 49.2583 10.4907 48.9866 10.9165C48.8168 11.1959 48.482 11.3675 48.2344 11.5505C47.4353 12.1505 47.0095 12.858 46.6835 13.9963C46.3112 15.3562 46.5746 17.6057 45.3922 18.0268C44.9393 18.1852 44.1009 18.2017 43.6927 18.0268C43.139 17.795 43.1503 17.1029 43.1503 16.3581C43.1503 14.9469 42.5573 14.4195 42.298 13.2999C42.1015 12.4586 42.3131 11.6276 42.0901 10.8501C41.9053 10.1735 41.4457 9.80195 40.9679 9.33509C40.2157 8.59648 39.549 8.11936 38.9087 7.42842C38.2551 6.71842 37.7927 5.85806 36.8854 5.46455C36.252 5.18253 35.4049 5.21443 34.5764 5.09414C33.7846 4.98156 32.896 5.08057 32.1941 5.31492C31.535 5.51516 31.0711 5.99008 30.5496 6.4232C30.0806 6.82367 29.514 7.12367 28.7937 7.42842C27.4951 7.97633 26.0454 8.42485 25.5569 9.69853C25.4322 10.0381 25.416 10.4221 25.2818 10.7613C25.0119 11.4952 24.6239 11.7889 24.1064 12.2694C23.8633 12.4868 23.6113 12.7333 23.4019 12.9713C23.0091 13.4352 22.5093 14.0367 22.4466 14.7855C22.3219 15.9972 22.7829 17.0857 22.3802 18.0876C22.2368 18.4573 21.7776 18.7896 21.291 18.8695C20.8656 18.9399 20.4427 18.8593 20.069 18.8695C19.6425 18.8886 19.2519 18.9509 18.8973 19.0555C17.6463 19.4229 17.3867 20.3332 17.3559 21.8709C17.3493 22.4107 17.4542 22.9022 17.3559 23.4182C16.9987 25.2324 15.6315 26.2849 15.4214 28.1982C15.2901 29.2383 15.5094 30.8262 14.9244 31.3738C14.7323 31.5557 13.8624 31.9862 13.4831 31.98C13.0885 31.98 12.8164 31.6635 12.446 31.5249C12.0309 31.3738 11.5204 31.3929 11.0517 31.3375C10.2504 31.27 9.54292 31.0382 9.33095 30.5292C8.85456 29.3721 9.45637 27.3837 9.42337 26.1071C9.37349 24.6445 8.90737 23.0676 9.27081 21.7814C9.49818 20.9544 9.77067 20.1865 9.95587 19.2366C10.3692 17.2438 9.79267 15.3598 9.62801 13.4293C9.54953 12.4659 9.44427 11.4592 9.30931 10.5127C9.15895 9.59767 8.78451 8.61922 8.90737 7.6734C8.98768 6.97587 9.70796 6.48591 10.2372 6.00402C10.7102 5.5687 11.2879 5.09378 11.4122 4.46446C11.6337 3.44713 10.9376 2.5941 10.6013 1.8896C10.2617 1.17409 9.94524 0.435484 9.30968 0.0705804C9.12851 -0.0313725 8.85456 -0.113155 8.59711 -0.167065C8.06021 -0.29689 7.33297 -0.414613 6.91305 -0.380873C6.39339 -0.346033 5.71492 0.059945 5.15455 0.0980857C4.65689 0.136226 4.2201 0.0214376 3.78772 0.0980857C3.45252 0.160431 3.06892 0.325829 2.72565 0.459688C2.38202 0.608584 1.99621 0.743176 1.73033 0.915542C1.44941 1.09671 1.27081 1.51479 1.00785 1.82652C0.748939 2.1122 0.514594 2.34655 0.33856 2.63957C-0.0285439 3.26413 -0.0949234 3.99137 0.128786 4.7054C0.431711 5.70733 1.61884 5.81918 2.09266 6.7617C2.33508 7.25239 2.24376 7.97523 2.24376 8.64086C2.27053 10.7155 3.10082 12.061 3.3051 13.9376C3.38138 14.5868 3.33003 15.2704 3.33003 15.9672C3.33003 16.6669 3.4903 17.3292 3.5079 17.8991C3.58638 19.1757 2.90315 20.2308 2.6336 21.2592C2.31931 22.4892 2.4704 23.7794 2.61123 25.041C2.74729 26.3675 2.67577 27.8216 2.78103 29.1029C2.90352 30.5189 3.32343 31.5663 2.66954 32.6728C2.21222 33.451 1.23743 34.5193 1.4186 35.6708C1.53412 36.2892 2.23239 36.9001 2.84961 37.276C3.47489 37.6589 4.24688 37.9101 5.08377 37.8269C6.0923 37.7154 6.88445 36.8462 8.08588 37.063C8.48562 37.1396 8.87803 37.3201 9.30968 37.389C9.77067 37.4873 10.2504 37.5181 10.7216 37.5544C12.64 37.6652 14.378 36.8374 16.2876 37.2456C17.0929 37.4198 18.0857 37.7943 18.9648 37.5177C20.08 37.1686 20.8274 35.4853 20.8659 34.1001C20.9121 32.4887 20.8271 30.695 21.1934 29.3384C21.3221 28.9174 21.6012 28.6009 21.8088 28.2573C22.1774 27.6129 22.5093 26.9275 22.5874 26.0752C22.6299 25.7048 22.5672 25.2496 22.8016 24.8019C23.0473 25.0622 23.0539 25.469 23.0737 25.8008C23.1474 27.091 23.1342 28.3486 23.4734 29.3127C23.6722 29.8881 24.149 30.1786 24.4108 30.6513C24.8076 31.3731 24.8612 32.2026 25.0775 32.946C25.3027 33.7818 25.5572 34.3865 26.074 34.9154C26.5676 35.4321 27.2409 35.698 27.9263 36.0339C28.611 36.368 29.3585 36.5334 30.1301 36.8231C30.9424 37.1231 31.4511 37.4745 32.4596 37.4601C33.3944 37.4477 34.1858 37.3208 35.0939 37.093C35.9443 36.884 36.7878 36.8301 37.5514 36.5778C37.8917 36.4725 38.2273 36.2873 38.5724 36.1241C38.9453 35.958 39.3469 35.8924 39.6949 35.7347C41.0911 35.1031 41.2165 33.2416 41.5752 31.4644C41.7586 30.5439 41.4355 29.7103 41.174 28.8983C40.9444 28.1014 40.5876 27.0628 39.849 27.0151C38.5595 26.9282 38.0035 28.5752 37.3988 29.5544C36.7361 30.6121 35.6839 31.1556 33.9995 31.1556C32.4016 31.1556 30.9138 30.8992 30.3156 29.8566C30.0057 29.3388 29.9346 28.6346 29.6662 27.9848C29.3365 27.1259 28.7115 26.5908 28.673 25.5555C28.6664 25.2159 28.7691 25.125 28.7691 24.7725C28.7691 24.2881 28.4666 24.1542 28.5194 23.5949C29.3141 22.8904 30.4939 23.1823 31.3931 23.4174C32.3034 23.6477 33.2822 24.072 34.2995 24.0427C35.0403 24.031 35.9183 23.8157 36.6312 23.6833C37.3918 23.5417 38.1367 23.3518 38.9692 23.2916C40.7266 23.1688 42.5826 23.673 44.1108 23.4435C44.4735 23.391 45.0618 22.955 45.4237 23.1108C45.6706 23.2168 45.6753 23.6727 45.6959 23.9213C45.7421 25.085 45.6845 26.117 45.9368 26.9854C46.2379 28.0563 47.0656 28.9174 47.3267 30.0154C47.4357 30.4584 47.3935 30.7173 47.5138 31.2249C47.5743 31.5241 47.8376 31.6719 48.0829 31.9158C48.6609 32.5022 49.1208 33.2724 49.5712 33.8533C50.2449 34.7335 50.8155 35.5597 51.7129 36.2866C52.4933 36.8888 53.4887 37.6178 54.7202 37.8269C55.3957 37.9362 56.1526 37.8863 56.8905 37.9197C57.5888 37.9362 58.3655 38.0733 59.0429 37.9424C59.7375 37.8038 60.1435 37.3204 60.7009 36.9166C61.1736 36.5741 61.7604 36.3119 62.2467 36.0332C62.8184 35.7174 63.2706 35.4347 63.7371 35.1024C64.226 34.7247 64.5535 34.3348 64.9154 33.8291C65.5132 32.9757 66.3101 31.7757 66.3439 30.3766C66.3457 29.6024 66.1202 29.0135 65.8191 28.4714C65.5803 28.0053 65.1788 27.387 64.6118 27.2319C63.5435 26.9278 62.9475 27.808 62.3806 28.1373C62.0971 28.2877 61.8139 28.3486 61.5866 28.5008C60.4977 29.1697 59.9443 30.9773 58.8291 31.373C58.3784 31.5322 57.7853 31.555 57.105 31.555C56.9011 31.555 56.7101 31.4339 56.5003 31.3364C55.9286 31.0998 55.4467 30.8805 55.0143 30.5512C54.4165 30.1071 53.8389 29.6329 53.4421 29.0743C52.8058 28.1744 52.7277 26.7379 52.0782 25.894C51.8149 25.5551 51.5468 25.3765 51.3773 25.0406C51.0748 24.4344 51.3238 23.5289 51.8347 23.3151C52.6224 23.0089 53.2253 23.6364 54.0109 23.6239C54.6391 23.6144 55.2017 23.3595 55.7683 23.2315C57.0379 22.9458 58.5577 23.0089 59.5541 23.4435C60.0697 23.673 60.5898 23.9096 61.1938 23.954C62.0732 24.0229 62.9857 23.8795 63.7907 23.7757C64.5051 23.6833 65.738 23.566 66.0289 23.2311C66.1693 23.0665 66.151 22.7896 66.2089 22.4987C66.2669 22.278 66.3439 22.0506 66.3927 21.8694C66.8386 20.478 66.5507 18.8292 66.3927 17.5082C66.2786 16.4861 66.5977 15.4262 66.5504 14.516ZM37.4564 17.4818C37.3027 17.9006 35.9751 18.2842 35.2189 18.2061C34.7994 18.165 34.4876 17.9299 33.9991 17.8118C32.9437 17.5595 31.0425 17.6575 29.6394 17.7209C29.0456 17.7469 28.5443 17.7469 28.4299 17.4183C28.2153 16.8176 29.0863 16.1549 29.4028 15.8102C29.8132 15.3723 30.2302 14.6894 30.3982 14.2083C30.5317 13.8243 30.5093 13.4161 30.8019 13.0908C31.0055 12.836 31.5845 12.734 32.0041 12.5209C32.7159 12.1513 33.0082 11.3195 33.7644 11.2172C34.3424 11.1358 34.5826 11.6184 35.0609 11.9723C35.4049 12.2246 35.9927 12.4061 36.1515 12.6618C36.3122 12.9031 36.252 13.389 36.3122 13.9391C36.4104 15.0775 37.0016 15.6426 37.3027 16.3896C37.4388 16.7259 37.551 17.2009 37.4564 17.4818ZM59.07 17.9945C58.4546 17.9556 57.8297 18.0341 57.1604 18.0546C55.8886 18.0942 54.8067 17.8694 53.6929 17.6296C53.1358 17.5163 52.3573 17.5331 52.27 17.115C52.1805 16.7732 52.5601 16.1106 52.7431 15.8098C53.189 15.0731 53.7512 14.4287 54.2599 13.755C54.6351 13.2628 54.9541 12.6519 55.7188 12.5818C56.0338 12.5341 56.3433 12.661 56.7101 12.6973C57.1333 12.7329 57.6537 12.6057 57.9504 12.6973C58.3578 12.8114 58.664 13.3091 59.0165 13.572C59.3652 13.8489 59.8695 14.0803 60.0697 14.4507C60.3734 15.0048 60.1944 15.801 60.3459 16.5103C60.4442 17.005 60.717 17.3421 60.7009 17.8368C60.3932 18.1852 59.5967 18.0198 59.07 17.9945Z" fill="black"/>
<path d="M65.353 1.90166C65.3332 1.85031 65.3236 1.7678 65.3236 1.65484L65.3082 1.26133C65.3082 1.09594 65.2639 0.977113 65.21 0.896431C65.1656 0.828951 65.0625 0.758538 64.9532 0.707928C65.0801 0.65035 65.1788 0.5583 65.2591 0.442777C65.3332 0.337524 65.361 0.193396 65.361 0.0162623C65.361 -0.319302 65.2261 -0.547412 64.9617 -0.676137C64.8172 -0.737015 64.6474 -0.768555 64.4156 -0.768555H63.0906V2.15507H63.4815V0.896431H64.3621C64.5227 0.896431 64.6386 0.911467 64.7079 0.956576C64.8285 1.01525 64.9019 1.13958 64.9199 1.33798L64.9422 1.82244C64.9422 1.9398 64.9525 2.01168 64.9613 2.04725C64.9613 2.09163 64.9774 2.12463 64.9866 2.15471H65.4747V2.07879C65.4194 2.05569 65.3706 1.99958 65.353 1.90166ZM64.8014 0.446812C64.6995 0.527494 64.5539 0.571135 64.3804 0.571135H63.4815V-0.431157H64.4156C64.5539 -0.431157 64.6613 -0.407319 64.7435 -0.375046C64.8821 -0.300598 64.9617 -0.155004 64.9617 0.0610042C64.962 0.248774 64.9155 0.383366 64.8014 0.446812Z" fill="black"/>
<path d="M63.8118 -1.97762C62.544 -1.82652 61.4661 -0.762621 61.4756 0.714962C61.4984 3.04448 64.0457 3.99249 65.6876 2.93849C66.6672 2.311 67.2609 0.749069 66.5843 -0.576685C66.2326 -1.28119 65.2593 -2.15109 63.8118 -1.97762ZM66.4042 1.07033C66.2326 2.4533 64.4759 3.5194 62.9943 2.60989C62.3364 2.21015 61.7144 1.19319 62.0243 0.0841751C62.2278 -0.614092 62.9129 -1.35637 63.8624 -1.48473C65.3532 -1.6769 66.5979 -0.576685 66.4042 1.07033Z" fill="black"/>
</svg>
